<svg width="29" height="21" viewBox="0 0 29 21" fill="none" xmlns="http://www.w3.org/2000/svg">
<path fill-rule="evenodd" clip-rule="evenodd" d="M0 20.8067C0.222628 20.8067 7.64117 19.4497 8.01213 19.0427L15.8759 7.82515C16.7662 6.64915 16.0243 7.19184 16.321 6.19683C16.4694 5.69926 17.1371 5.24693 17.9531 5.47303C19.1401 5.78974 19.4369 7.7799 17.0628 7.68941L13.2794 13.2531C12.6859 14.0672 9.57011 18.4095 9.34748 18.9071C10.757 18.7261 16.2469 17.5048 18.0274 17.143C23.4429 16.0121 21.6625 16.962 24.3332 13.2982C25.6685 11.3985 27.0039 9.36298 28.4134 7.46331C28.7844 6.87525 29.1552 6.64915 28.9327 5.83487C28.7844 5.15644 28.6359 4.52313 28.4134 3.84471C28.1166 2.62347 27.6715 1.22124 27.449 0C25.7427 0.2261 19.4369 1.62832 17.1371 2.08065C16.321 2.26163 15.4308 2.44249 14.6147 2.62347C11.7214 3.25665 12.8343 2.62347 10.9796 5.1112L4.8963 13.8862C4.08023 15.0622 3.26415 16.1931 2.44822 17.3691C2.07726 17.9119 0.222628 20.6711 0 20.8067Z" fill="#0C2D62"/>
</svg>
