<svg width="34" height="22" viewBox="0 0 34 22" fill="none" xmlns="http://www.w3.org/2000/svg">
<path fill-rule="evenodd" clip-rule="evenodd" d="M0 6.18196C0.9148 6.78612 2.6682 7.62274 3.73542 8.13404L11.13 12.1313C12.5022 12.8286 13.6458 13.4793 14.8654 14.0835C17.6098 15.385 21.3454 17.523 24.0898 19.0104C24.852 19.3823 29.3498 21.9388 29.9596 21.9388L34 15.7103C33.5426 15.385 21.3454 9.06366 19.0584 7.80872L15.2466 5.903C13.0358 4.69456 10.139 3.06767 7.85201 1.95221C7.01342 1.58039 4.72642 0.185974 3.96418 0L3.88798 0.139479C3.81163 0.185972 3.73541 0.278959 3.6592 0.325452L0.228779 5.67066C-0.0762018 6.08898 0.0762096 5.71716 0 6.18196Z" fill="#F6F7F9"/>
</svg>
