<svg width="25" height="30" viewBox="0 0 25 30" fill="none" xmlns="http://www.w3.org/2000/svg">
<path fill-rule="evenodd" clip-rule="evenodd" d="M7.11396 25.1716C7.18962 25.2177 7.18962 25.2177 7.18962 25.2638C7.18962 25.3099 7.26542 25.3099 7.26542 25.3099L7.6437 26.0021C8.17359 28.7708 4.16246 29.832 2.80019 27.6633C3.55691 27.4326 3.78403 27.2941 4.23812 27.6171C5.44906 28.4477 6.81133 27.6633 7.0383 26.7865C7.18962 26.3251 7.0383 26.3251 6.96264 25.9098C6.88698 25.2637 6.88699 25.7252 7.11396 25.1716ZM19.223 4.63751C18.5418 3.94542 18.6175 2.60725 19.223 1.86899C19.9041 1.13061 21.2663 0.576858 22.553 1.26908C24.8234 2.37646 24.218 5.60655 20.9637 5.60655C21.115 5.23742 21.1907 5.28358 21.2663 4.96061C22.2502 4.77598 23.007 4.63751 23.2342 3.76079C23.4611 2.88406 22.9314 2.09965 22.1745 1.86899C21.115 1.49974 20.2069 2.09965 19.9041 2.69956C19.2987 3.89926 20.5853 3.80694 19.5257 4.91445L19.223 4.63751ZM18.9203 5.74502C18.6175 6.34493 16.4228 9.29807 15.893 10.1748C13.0171 14.4201 9.30874 19.219 6.58421 23.4641C3.78403 22.6797 1.58924 24.0641 1.36227 26.4636L0 26.7404L0.378289 27.1557L0.681064 27.3864L1.58924 27.8941C1.81636 28.0324 1.6649 27.8941 1.89201 28.1247L2.3461 28.54L2.72453 28.8169L2.80019 28.863L3.32994 29.186L3.70837 29.4167C4.38943 29.7858 5.14629 29.8782 6.05447 29.6937C7.94648 29.2322 9.15743 27.4326 8.62768 25.7252C8.40057 24.9869 8.09779 24.7563 7.87082 24.2487C9.91415 21.2492 11.9576 18.3423 14.0766 15.343C15.1362 13.8663 19.5257 7.40615 20.3582 6.48327C25.2775 7.08318 26.4128 2.14581 23.1584 0.438513C21.2663 -0.530525 19.223 0.253884 18.3148 1.36139C17.1796 2.74572 17.4823 4.45301 18.9203 5.74502Z" fill="#F0F2F4"/>
</svg>
