<svg width="72" height="92" viewBox="0 0 72 92" fill="none" xmlns="http://www.w3.org/2000/svg">
<path fill-rule="evenodd" clip-rule="evenodd" d="M7.42213 69.1921C7.64487 69.0564 9.50036 66.2959 9.87149 65.7528C10.6878 64.5763 11.5043 63.4449 12.3207 62.2683L18.4069 53.4892C20.2624 51.0004 19.149 51.6338 22.0437 51.0004C22.8601 50.8193 23.7508 50.6383 24.5672 50.4573C26.868 50.0047 33.1768 48.6019 34.8839 48.3757C35.1065 49.5975 35.5518 51.0004 35.8487 52.2222C36.0713 52.9009 36.2199 53.5345 36.3683 54.2132C36.5908 55.0279 36.2199 55.2541 35.8487 55.8424C34.4386 57.743 33.1026 59.7795 31.7666 61.68C29.0947 65.3456 30.876 64.3952 25.4579 65.5266C23.6766 65.8886 18.1841 67.1104 16.774 67.2915C16.9967 66.7937 20.114 62.4494 20.7077 61.6349L24.4929 56.0686C26.868 56.1592 26.5711 54.1681 25.3835 53.8512C24.5672 53.625 23.8992 54.0776 23.7508 54.5754C23.4538 55.5708 24.1961 55.0279 23.3054 56.2044L15.438 67.4272C15.0669 67.8344 7.64487 69.1921 7.42213 69.1921ZM20.7077 50.3668C21.3756 49.3712 22.0437 48.3304 22.7859 47.3348C23.0827 46.9275 24.6414 44.4839 24.9382 44.3028C25.2351 44.0314 32.6573 42.5832 33.7705 42.3569C33.4736 42.9905 33.4736 42.8547 33.6221 43.624L34.587 47.4706L20.7077 50.3668ZM64.9433 43.0358C63.4589 41.9496 65.7597 39.4608 67.541 40.8184C68.58 41.5876 68.4316 43.9408 65.6855 43.624C66.205 42.5832 66.5762 43.3978 67.2441 42.538C67.7636 41.9496 67.3925 41.2256 66.9472 40.9542C66.0565 40.4111 64.6463 41.0446 64.9433 42.2212C65.0916 42.7642 65.2402 42.3569 64.9433 43.0358ZM54.5524 26.2015C53.1422 23.5769 55.6656 21.5405 58.0408 22.8529C59.9705 23.8936 59.451 27.2877 55.9626 26.9708C56.5563 25.749 57.1501 26.7899 57.9664 25.7037C59.3024 23.8936 56.3337 22.2193 55.0719 23.9389C54.2554 25.1607 55.6656 25.4775 54.5524 26.2015ZM30.4306 24.0747C28.8719 23.2149 30.6532 20.3639 32.8057 21.6762C34.4386 22.6718 33.0282 25.2059 31.247 24.5725C31.4697 23.9389 32.1376 24.663 32.8057 23.7579C33.6221 22.536 31.6181 21.3595 30.6532 22.4003C30.2079 22.8529 30.579 23.5316 30.4306 24.0747ZM24.4187 13.3496C23.0085 11.992 25.3835 9.81986 27.0164 11.1775C28.7977 12.6256 26.5711 14.662 25.2351 13.8927C25.6805 13.4854 26.3485 13.8474 26.7938 13.1687C27.7587 12.0373 25.7547 10.7249 24.7898 11.7658C24.1219 12.3993 24.7156 12.9876 24.4187 13.3496ZM51.5093 7.87404C50.4703 7.33098 50.6187 5.65663 51.3609 4.84209C51.9546 4.16323 53.5132 3.71069 54.6266 4.29902C57.0758 5.7019 55.5172 9.00532 52.9937 8.55279C53.5875 7.33098 54.107 8.23605 54.9235 7.19518C56.2595 5.52083 53.2164 3.62016 51.9546 5.61137C51.2124 6.78791 52.6969 6.96897 51.5093 7.87404ZM19.3717 22.4456C19.7428 21.6309 24.1961 15.2956 24.7156 14.7072C26.4969 14.9788 27.6102 14.662 28.2782 13.5759C29.8368 10.906 25.8289 8.59805 23.6766 10.906C23.3054 11.3585 23.0827 11.9467 23.1569 12.5803C23.1569 13.3949 23.6022 13.7569 23.8992 14.2094C23.1569 14.9335 19.2975 20.7259 18.4069 22.0383C18.0357 22.5813 18.0357 22.7171 17.2193 22.8981L5.71503 25.2512C5.04711 25.4323 4.97291 25.7943 4.75018 26.3826L17.0709 23.8483C16.6998 24.663 12.4691 30.4553 11.6528 31.6772L10.4652 33.3063C10.0941 33.9851 11.3559 36.6097 11.2817 37.4695C11.2075 37.7864 7.42214 43.1263 6.90261 43.805C6.38309 44.5291 5.93776 45.4794 5.2697 46.1583C4.89858 46.5203 4.67599 46.2939 4.23066 46.5655C3.26581 47.199 4.37906 47.0633 2.37516 47.5159C1.63291 47.6515 0.742255 47.8326 0 47.9684V48.8735L3.85953 48.1041C4.60178 49.2355 6.60568 48.6924 6.08616 47.0181C5.93776 46.6108 6.53148 46.0225 6.82841 45.6605L11.6528 38.7819L13.2856 45.2984L12.9144 45.8414C12.766 46.0677 12.766 46.2939 12.8402 46.5203C12.9888 47.2895 13.063 46.9275 12.5434 47.6515C9.50036 51.9054 6.67988 56.2497 3.63694 60.4582C3.04308 61.2727 2.44936 61.8611 3.26581 62.7209C4.15646 62.5399 5.12131 62.3589 6.08616 62.1326C8.75811 61.5443 7.34793 62.4041 8.7581 62.2231C9.20343 62.1778 9.64876 61.8611 9.72296 61.5443C10.0941 60.8202 9.64876 60.6393 9.57456 60.3225C9.57456 60.0962 14.8443 52.6747 14.9185 52.5842C15.2896 52.3127 17.1451 52.0411 17.6646 51.9054C14.8443 56.3402 11.0589 61.3633 8.01585 65.7981C5.49243 69.5089 5.93776 67.5177 7.49633 70.6402L14.102 69.2826C12.6176 71.5453 12.9888 70.7307 13.8051 73.8985L14.7701 77.6997C15.0669 78.7406 14.8443 78.2428 14.6957 78.9668C14.9185 79.1931 15.9575 80.2339 16.3286 80.3244C17.5904 79.8718 17.5904 78.288 15.8833 78.0617C15.3638 76.2063 14.9927 74.4414 14.4731 72.5861C14.102 71.0022 13.9536 71.2738 14.7701 70.0067C15.6607 68.7848 15.5122 68.9659 17.1451 68.6491C21.2272 67.7893 25.3835 66.8842 29.4657 66.0696C30.876 65.7981 30.8016 65.6172 31.5439 64.5763L37.4073 56.2044C38.298 54.9374 38.2238 55.2994 37.7784 53.6703C37.4073 51.9958 36.5909 49.6427 36.4425 48.0588L44.4583 46.3845C44.2357 46.837 43.1223 48.3304 42.7512 48.8282C41.7864 50.1858 42.2317 50.3667 42.6028 51.8602C43.1223 54.0323 43.716 56.2497 44.3099 58.4219C44.5325 59.4627 43.8646 59.9604 43.0481 61.1371L32.5829 76.0254C31.8408 77.1566 32.3603 76.3421 31.3213 76.8399C30.8016 77.0662 30.4306 77.6092 30.7274 78.2428C30.8016 78.5595 30.9502 78.65 31.1728 78.7858C31.9892 79.2384 31.6923 78.7406 32.2119 80.958L34.29 89.1035C34.5128 90.0538 34.1416 89.8728 33.8447 90.6422L34.7353 90.9589C35.1807 89.9633 35.7002 90.4158 35.2549 88.9677C34.9581 87.8817 32.6573 79.1931 32.7315 78.7858C32.8799 78.4237 33.251 78.469 33.1768 77.745C33.1026 77.1114 32.9541 77.2019 33.3252 76.6588L44.7552 60.3677C45.2006 61.8611 45.4973 63.4449 45.9427 64.9383C46.388 66.5221 45.4232 65.3908 45.7201 67.201C45.7943 67.6535 44.9778 68.5586 44.681 69.0111C43.0481 71.3642 41.4152 73.7627 39.7081 76.0706L36.0713 81.32C35.4034 82.1798 35.2549 82.1798 35.5518 83.3563L37.3331 90.3253C37.63 91.5472 37.3331 91.864 38.8175 91.9998C38.298 89.5108 37.3331 86.3883 36.6652 83.7636C36.2941 82.1798 36.3683 82.5418 37.8526 80.4149C38.5949 79.374 39.3371 78.3333 40.0793 77.2924C40.6731 76.3874 45.7943 68.8753 46.4623 68.106C46.9819 67.5177 47.7983 68.0155 48.1693 67.0199C48.4662 65.9792 47.5756 65.8434 47.2045 65.5266C47.0561 65.3908 45.6459 60.232 45.5717 59.4627C45.5717 59.0102 48.2436 55.3446 48.689 54.8016C49.8022 53.2178 49.1343 54.2132 50.2475 53.6703C51.064 53.263 50.2475 52.9914 51.8804 52.6294L58.7087 51.2266C59.3768 51.0909 60.4158 51.0456 60.7869 50.5931C61.0837 50.2309 61.6032 49.5069 61.9002 49.0544C62.2713 48.5113 62.5682 48.0137 62.9392 47.4706C63.3845 46.9275 63.6815 46.5203 64.0526 45.9319C64.3495 45.5247 64.9433 44.7554 65.0916 44.3028C69.6934 45.0721 69.8418 41.1351 67.8378 40.0038C66.5018 39.2797 65.0175 39.687 64.2752 40.5016C63.5331 41.2709 63.4589 42.538 64.0526 43.443L64.3495 43.8503C63.8299 44.6196 63.162 45.5247 62.5682 46.2939C61.9744 47.1537 61.4549 47.9684 60.8611 48.8282C59.7478 50.3668 60.2674 49.9595 58.115 50.412C57.0758 50.6383 51.4351 51.9507 50.767 51.9507C50.2475 51.9054 50.0249 51.3171 49.0599 51.5886C48.5404 51.7244 48.1693 52.2674 48.3178 52.9009C48.5404 53.7607 48.0209 54.0323 46.9819 55.5256C46.388 56.3402 45.8685 57.1095 45.2748 57.9693C44.681 56.657 43.9388 52.9914 43.4935 51.3624C43.0481 49.5069 43.1965 49.9595 44.1614 48.5113C46.2396 45.5247 45.2006 46.1583 49.5796 45.2984C51.2866 44.9363 51.6577 45.2079 52.5483 43.8503C52.9937 43.2167 55.8142 39.144 56.1109 38.9177C58.9314 39.4608 60.1931 36.1572 57.8181 34.9807C56.0368 34.0756 54.1071 35.5237 54.4038 37.1528C54.4782 37.8769 54.775 38.0579 55.1461 38.4652C54.7008 39.325 52.8453 41.7234 52.1772 42.719C51.4351 43.805 51.5093 43.9861 50.0249 44.2576C48.9858 44.4839 47.7983 44.8006 46.7591 44.9363C47.2045 43.8503 48.392 42.5832 49.0599 41.5876C49.8022 40.4564 54.0329 34.2567 54.7008 33.4874C55.1461 32.9896 58.4861 32.4918 59.3024 32.356C60.6384 32.0845 60.3416 32.0845 61.0095 31.1794C61.7518 30.0933 62.4939 29.0526 63.3103 27.9664C63.7557 27.2877 67.541 22.0835 67.8378 21.3595C71.0294 22.0835 72.2168 19.0062 70.1388 17.6486C68.2831 16.4268 65.1658 18.2822 67.0215 20.8617C66.7246 21.4953 66.0565 22.2193 65.6112 22.8981L61.3065 29.143C59.2282 32.1298 60.1931 31.27 55.3688 32.2655C53.8101 32.537 54.1071 32.6727 53.2906 33.8041C52.4 35.1617 45.6459 44.9363 45.2748 45.2079C44.9036 45.4794 36.7394 47.0633 36.1455 47.1537C35.9971 46.3392 35.1065 43.7598 35.1807 43.2167C35.1807 42.6738 35.7745 41.9949 36.2941 41.8591C38.298 41.3162 46.2396 40.0491 47.0561 39.5513C47.1303 39.506 55.0719 28.2832 55.2945 27.8306C56.4079 27.9664 57.0758 28.057 58.115 27.6497C60.9353 26.5636 60.6384 23.3054 58.5603 22.0383C56.779 20.9522 54.775 21.6762 53.8101 22.7171C52.8453 23.7579 52.6225 26.111 54.0329 26.9708C53.6617 27.9212 51.7319 30.41 50.9898 31.4056C50.0249 32.8538 48.9857 34.3019 47.9467 35.7499C47.4272 36.4741 46.9819 37.1528 46.4623 37.9221C45.9427 38.6915 45.2006 38.601 43.6419 38.9177C41.4894 39.325 39.2628 39.9586 37.1847 40.23C37.8526 38.8724 49.2085 23.0791 51.1382 20.2282C51.7319 19.4135 52.1772 19.2778 51.8062 18.1464C51.4351 16.5174 51.064 14.9335 50.6187 13.3043C50.0991 11.4942 51.064 11.5395 52.3258 9.41259C57.2985 10.0915 58.2634 4.97777 55.0719 3.48449C53.1422 2.57941 51.2866 3.34869 50.3959 4.38956C49.1343 5.9281 49.728 7.51204 50.9156 8.77911C50.3959 9.86512 48.5404 11.4942 48.8374 12.6709C49.2827 14.3452 49.6538 16.0196 50.1733 17.6486C50.4703 19.0062 50.3217 18.8706 49.5796 19.866C45.5717 25.4323 41.7864 31.2247 37.7042 36.7908C37.0362 37.7411 35.7745 39.8228 35.1065 40.5468C34.6612 40.9993 30.6532 41.5876 29.7626 41.814C28.2782 42.1307 25.5321 42.538 24.2703 42.9452C23.6766 43.1263 19.2233 49.7784 18.8522 50.3668C18.3327 51.0909 17.813 50.9551 16.4028 51.2266C15.9575 51.3171 15.5122 51.4529 15.0669 51.5433C14.3989 51.6338 14.3247 51.6791 14.0278 52.1316L10.0941 57.7883C9.79715 58.1503 9.64876 58.4219 9.42617 58.6933C9.20343 59.0102 8.98084 59.4627 8.7581 59.6889C8.38698 60.0962 8.16438 59.87 7.71906 60.232C7.1252 60.6845 7.64487 60.8655 6.90261 61.0465C6.23456 61.2275 4.67598 61.5443 4.00793 61.6349C4.37905 60.7751 5.19551 59.87 5.71503 59.1006C8.16438 55.7519 10.391 52.358 12.766 49.0544C13.063 48.6019 13.2856 48.2399 13.6567 47.7873C14.102 47.1537 14.5473 47.7421 15.1411 47.0181C15.5122 46.5655 15.438 45.8867 14.9927 45.5247C14.2504 44.8459 14.3989 45.6152 14.102 44.2576C13.8051 43.1263 13.5083 41.9949 13.2114 40.9089C13.063 40.4111 12.3949 37.9221 12.4691 37.6053C12.5434 37.1528 15.5122 33.2611 15.9575 32.537C16.4028 31.8582 16.477 31.994 17.442 31.8129L26.6453 29.9124C28.0555 29.5955 27.9071 29.1882 28.9461 27.7854C29.54 26.9708 30.1337 25.8395 30.7274 25.2965C34.29 26.1563 35.7745 22.2645 33.1026 20.8617C31.6181 20.1376 30.2079 20.7711 29.54 21.5405C28.1297 23.0791 29.4656 24.1652 29.8368 24.9345C29.54 25.1607 28.575 26.5635 28.3524 26.9256C26.6453 29.4146 27.3876 28.781 23.7508 29.5955L17.5162 30.8626C15.8833 31.2247 15.8833 30.9531 15.0669 32.1298L12.5434 35.7952C12.4691 35.8857 12.3949 35.9763 12.3207 36.0215L12.0238 36.3383C11.3559 32.4012 10.8363 34.7545 13.4341 30.7722L17.7388 24.6177C18.0357 24.2556 18.2583 23.6674 18.7036 23.4863C19.0006 23.3958 23.7508 22.3551 24.1219 22.4003C24.5672 22.4907 24.864 23.0338 25.8289 22.6718C26.4969 22.4003 26.4227 22.0383 26.4969 21.2689C26.5711 20.5902 33.3994 11.3133 34.29 9.95566C35.4776 8.28131 36.5908 6.69737 37.7784 5.0683C38.6691 3.66542 40.5988 1.31234 41.1926 0C39.3371 0.362003 39.7081 0.588208 38.2238 2.62468C34.4386 8.00972 30.7274 13.5307 26.868 18.8706C24.9382 21.5405 26.1258 20.0018 24.7156 20.5902C24.1961 20.7711 24.2703 20.9522 23.9734 21.3142C23.7508 21.6309 24.0475 21.45 23.0085 21.6762L19.3717 22.4456Z" fill="#F6F7F9"/>
</svg>
