<svg width="182" height="163" viewBox="0 0 182 163" fill="none" xmlns="http://www.w3.org/2000/svg">
<g clip-path="url(#clip0_66_1522)">
<rect width="181.295" height="163" transform="matrix(-1 0 0 -1 181.295 163)" fill="#424242"/>
<path d="M181.295 0L-0.000244141 163L181.295 163L181.295 0Z" fill="#424242"/>
<path d="M-181.295 0C-181.295 -90.0224 -100.127 -163 -0.000228882 -163C100.126 -163 181.295 -90.0224 181.295 0C181.295 90.0224 100.126 163 -0.000228882 163C-100.127 163 -181.295 90.0224 -181.295 0ZM90.6473 0C90.6473 -45.0112 50.063 -81.5 -0.000228882 -81.5C-50.0635 -81.5 -90.6478 -45.0112 -90.6478 0C-90.6478 45.0112 -50.0635 81.5 -0.000228882 81.5C50.063 81.5 90.6473 45.0112 90.6473 0Z" fill="#EFE94B"/>
</g>
<defs>
<clipPath id="clip0_66_1522">
<rect width="181.295" height="163" fill="white" transform="matrix(-1 0 0 -1 181.295 163)"/>
</clipPath>
</defs>
</svg>
