<svg width="34" height="23" viewBox="0 0 34 23" fill="none" xmlns="http://www.w3.org/2000/svg">
<path fill-rule="evenodd" clip-rule="evenodd" d="M0 7.2897C0.747164 7.83646 2.61542 8.70211 3.58683 9.24887C4.18459 9.56776 4.78235 9.84108 5.38025 10.2055L20.0264 17.9054C21.9693 18.9078 23.5385 19.9102 25.5562 20.8214C26.2286 21.1403 28.62 22.5527 29.2177 22.7349L34.0001 15.3996C33.9254 15.354 33.9254 15.3084 33.8507 15.354C33.8507 15.354 33.776 15.3084 33.7013 15.2629L22.9408 9.61334C22.343 9.24887 21.7451 8.97543 21.1473 8.65653L15.6177 5.74068C14.2726 5.10277 13.3011 4.51044 11.956 3.78151C11.1342 3.37147 4.9319 0.0454481 4.55824 0C3.81094 0.774505 2.83953 2.64254 2.24177 3.55376C1.79341 4.23712 0 6.74293 0 7.2897Z" fill="#F6F7F9"/>
</svg>
