<svg width="181" height="171" viewBox="0 0 181 171" fill="none" xmlns="http://www.w3.org/2000/svg">
<g clip-path="url(#clip0_66_1521)">
<rect width="180.7" height="171" fill="#EFE94B"/>
<path d="M0 171L180.7 1.49493e-05L1.57973e-05 0L0 171Z" fill="#424242"/>
<path d="M180.701 171C180.701 265.441 99.7983 342 0.000244141 342C-99.7979 342 -180.7 265.441 -180.7 171C-180.7 76.5593 -99.7979 0 0.000244141 0C99.7983 0 180.701 76.5593 180.701 171ZM-90.35 171C-90.35 218.22 -49.8988 256.5 0.000244141 256.5C49.8993 256.5 90.3505 218.22 90.3505 171C90.3505 123.78 49.8993 85.5 0.000244141 85.5C-49.8988 85.5 -90.35 123.78 -90.35 171Z" fill="#F9F9F9"/>
</g>
<defs>
<clipPath id="clip0_66_1521">
<rect width="180.7" height="171" fill="white"/>
</clipPath>
</defs>
</svg>
