<svg width="180" height="163" viewBox="0 0 180 163" fill="none" xmlns="http://www.w3.org/2000/svg">
<g clip-path="url(#clip0_66_1524)">
<rect width="179.705" height="163" transform="matrix(-1 0 0 -1 179.705 163)" fill="#EFE94B"/>
<path d="M179.705 0L0.000213623 163L179.705 163L179.705 0Z" fill="#424242"/>
<path d="M0.000457764 0C0.000457764 -90.0224 80.4571 -163 179.705 -163C278.954 -163 359.41 -90.0224 359.41 0C359.41 90.0224 278.954 163 179.705 163C80.4571 163 0.000457764 90.0224 0.000457764 0ZM269.558 0C269.558 -45.0112 229.329 -81.5 179.705 -81.5C130.081 -81.5 89.8529 -45.0112 89.8529 0C89.8529 45.0112 130.081 81.5 179.705 81.5C229.329 81.5 269.558 45.0112 269.558 0Z" fill="#F9F9F9"/>
</g>
<defs>
<clipPath id="clip0_66_1524">
<rect width="179.705" height="163" fill="white" transform="matrix(-1 0 0 -1 179.705 163)"/>
</clipPath>
</defs>
</svg>
