<svg width="38" height="28" viewBox="0 0 38 28" fill="none" xmlns="http://www.w3.org/2000/svg">
<path fill-rule="evenodd" clip-rule="evenodd" d="M0 12.369L7.43104 16.3107C8.69419 16.9903 9.8089 17.6246 11.0722 18.259L22.293 24.1489C23.6306 24.7832 29.2782 27.9548 29.8726 28.0001L33.811 21.9741C34.4055 20.9773 35.1486 19.7994 35.8173 18.8932C36.1146 18.4401 37.6008 16.2201 37.7495 15.767C37.4522 15.4499 31.5075 12.369 30.3927 11.7799C29.7983 11.4628 29.1294 11.055 28.535 10.7832L9.88319 0.9968C9.43733 0.724877 8.32276 0.0906408 7.80247 0L4.45859 5.3463C3.71544 6.47894 0.0742868 11.7346 0 12.369Z" fill="#F6F7F9"/>
</svg>
