<svg width="40" height="30" viewBox="0 0 40 30" fill="none" xmlns="http://www.w3.org/2000/svg">
<path fill-rule="evenodd" clip-rule="evenodd" d="M0.0295788 12.9606L15.2495 21.0518C16.1492 21.5547 17.4238 22.149 18.3235 22.6518C20.7977 23.9775 23.5717 25.3489 25.971 26.6746C27.3206 27.4517 28.895 28.1373 30.6194 29.1431C32.7187 30.3315 32.9436 27.8174 32.8687 27.6345C32.5687 27.1775 32.2689 27.5889 31.669 26.5831C29.6448 23.4289 32.1189 20.229 35.043 20.0005C37.1423 19.8633 37.4421 21.189 38.4918 19.5891L39.7663 17.5776C40.3662 16.5719 39.7663 16.3891 38.4918 15.7948L29.4198 10.9493C29.12 10.8121 28.9699 10.7208 28.6701 10.5836L15.6244 3.58951C13.5251 2.53807 11.5008 1.44089 9.47644 0.343845C7.90204 -0.478971 7.75199 0.252397 6.92738 1.71525C5.87764 3.40661 5.27788 3.40661 6.85228 4.45806C8.20184 5.3266 8.72679 8.66359 6.17759 10.5836C5.42779 11.1778 3.62839 11.6806 2.35379 11.3607C1.67908 11.1778 1.22924 10.675 0.704437 11.2692C0.329538 11.6806 -0.120325 12.2749 0.0295788 12.9606Z" fill="#F6F7F9"/>
</svg>
