<svg width="20" height="39" viewBox="0 0 20 39" fill="none" xmlns="http://www.w3.org/2000/svg">
<path fill-rule="evenodd" clip-rule="evenodd" d="M15.2229 3.81419L10.9134 9.88469C10.096 11.0625 10.319 10.8814 10.6905 12.3763C11.1363 14.1884 11.5822 16.0005 12.028 17.8126C12.8452 21.0745 13.1424 20.0778 11.2849 22.6147L1.9229 36.0243C1.40281 36.8397 1.77434 36.4773 0.882716 36.7491C-0.1576 37.0208 -0.306152 38.2441 0.585467 38.7876C1.55137 39.3766 2.66596 38.6518 2.59154 37.7004C2.44298 36.885 2.14573 37.4285 2.74023 36.6131C2.96307 36.296 3.26033 35.8883 3.48316 35.5712C6.60383 30.8597 10.3933 25.8312 13.5882 21.1196C14.034 20.4402 13.514 19.3982 13.291 18.4921L11.5077 11.6968C11.2849 10.9267 11.2849 11.0172 11.7307 10.4737C12.2508 9.70343 15.8916 4.62961 16.0403 4.17658C19.3838 4.67493 20.1268 1.27728 17.8978 0.235276C15.6687 -0.761411 13.1424 1.59436 15.2229 3.81419Z" fill="#F4F5F7"/>
</svg>
