<svg width="181" height="171" viewBox="0 0 181 171" fill="none" xmlns="http://www.w3.org/2000/svg">
<g clip-path="url(#clip0_66_1523)">
<rect width="181" height="171" fill="#424242"/>
<path d="M0 171L181 1.49493e-05L1.58235e-05 0L0 171Z" fill="#424242"/>
<path d="M362 171C362 265.441 280.964 342 181 342C81.0365 342 0 265.441 0 171C0 76.5593 81.0365 0 181 0C280.964 0 362 76.5593 362 171ZM90.5 171C90.5 218.22 131.018 256.5 181 256.5C230.982 256.5 271.5 218.22 271.5 171C271.5 123.78 230.982 85.5 181 85.5C131.018 85.5 90.5 123.78 90.5 171Z" fill="#EFE94B"/>
</g>
<defs>
<clipPath id="clip0_66_1523">
<rect width="181" height="171" fill="white"/>
</clipPath>
</defs>
</svg>
