<svg width="40" height="30" viewBox="0 0 40 30" fill="none" xmlns="http://www.w3.org/2000/svg">
<path fill-rule="evenodd" clip-rule="evenodd" d="M8.16093 0.0400516C7.63679 0.268392 6.58851 2.14028 6.21409 2.73371C5.24067 4.10337 6.96279 4.0577 7.56193 5.33603C8.98462 8.34936 6.81308 11.3626 3.14399 11.4082C1.87101 11.4082 1.04731 10.0386 0.0738921 12.1843C-0.225674 12.9148 0.448311 13.1431 0.972447 13.417L30.1008 28.7115C30.9993 29.2594 31.8979 30.218 32.7964 28.2549C33.1709 27.3875 32.5717 27.4332 32.0476 26.9766C30.8495 25.9722 30.4752 23.5981 31.5234 22.0002C32.4969 20.5392 34.968 19.4435 36.5404 20.037C36.6901 20.0826 37.3641 20.7219 38.1878 19.9001C38.5622 19.5347 38.8616 18.9413 39.0863 18.5304C39.835 17.389 40.7336 16.7042 39.0115 15.8368C36.4655 14.5128 33.9944 13.0974 31.3737 11.8191C28.9026 10.5865 26.2818 9.03413 23.6611 7.7558C20.7407 6.2948 16.6224 3.92082 13.777 2.50549C12.504 1.91193 8.90977 -0.325166 8.16093 0.0400516Z" fill="#F6F7F9"/>
</svg>
