<svg width="35" height="23" viewBox="0 0 35 23" fill="none" xmlns="http://www.w3.org/2000/svg">
<path fill-rule="evenodd" clip-rule="evenodd" d="M0 5.87057C0.671712 6.28007 1.26868 6.50764 2.015 6.87162C2.61197 7.19009 3.28355 7.55408 3.95526 7.91806C4.55223 8.23666 5.22394 8.60064 5.82091 8.96463C8.65669 10.4207 12.9851 12.5592 15.5225 14.0608C16.7164 14.7432 18.1344 15.3803 19.403 16.0628C20.0747 16.4268 30.5224 22.0234 31.1194 22.1598C31.5671 21.7048 32.6866 19.9758 33.0598 19.3389L35 16.3812C33.5075 15.4257 30.9702 14.2427 29.2537 13.2872C28.5822 12.9232 27.7612 12.6047 27.1643 12.2407L11.5672 4.00501C10.8955 3.64102 10.2239 3.27704 9.62695 2.95857C8.95524 2.63997 8.35828 2.27599 7.68656 1.91201C7.0896 1.59354 4.10447 -0.0445834 3.58211 0.000930337C3.13434 1.13852 0.0746037 5.1426 0 5.87057Z" fill="#F6F7F9"/>
</svg>
