<svg width="8" height="21" viewBox="0 0 8 21" fill="none" xmlns="http://www.w3.org/2000/svg">
<path fill-rule="evenodd" clip-rule="evenodd" d="M3.64519 3.44714C2.4313 1.92064 4.78309 0.0241269 6.37633 1.1806C7.81775 2.2444 6.98321 4.55721 4.55557 4.09465C4.85894 3.12326 5.38997 3.81716 6.07283 3.12326C7.28672 1.87438 5.01076 0.301748 3.94855 1.68943C3.26584 2.61456 4.32791 2.75323 3.64519 3.44714ZM3.94855 4.78856C7.4384 5.9449 9.33501 2.19813 6.90737 0.486688C5.61764 -0.392167 3.94855 0.0241304 3.11401 0.902985C1.74844 2.19813 2.65882 3.44713 3.11401 4.23345C2.7348 5.01976 1.21741 7.00882 0.458849 8.07262C0.155341 8.48892 -0.148171 8.76653 0.0794956 9.46031C0.610529 11.4494 1.44507 13.9934 1.82442 15.9825C0.307025 16.3987 -0.830884 18.1564 0.838057 20.053L0.382868 20.793L1.29325 20.9781L1.82442 20.6081C5.01076 21.9956 7.96944 16.63 2.81065 15.7511C2.20363 13.7622 1.74844 11.6344 1.14157 9.64539C0.914043 8.85908 1.14157 8.85907 1.59676 8.2577C1.82442 7.88768 2.05195 7.51765 2.35546 7.1475C2.73481 6.6388 3.72103 5.25112 3.94855 4.78856Z" fill="#EAEDF1"/>
</svg>
