<svg width="190" height="103" viewBox="0 0 190 103" fill="none" xmlns="http://www.w3.org/2000/svg">
<path fill-rule="evenodd" clip-rule="evenodd" d="M133.835 99.6791C134.059 100.905 132.421 101.812 131.454 102.084C130.337 102.448 131.379 102.402 129.221 102.402C122.075 102.357 57.3172 102.538 56.7218 102.311C54.861 101.721 52.628 99.5883 54.7866 99.5431L123.415 99.5883C125.276 99.5883 132.644 99.3615 133.835 99.6791ZM95.0553 0.108302C101.308 -0.164075 107.635 -0.0732817 114.036 2.1959C119.619 3.92045 121.628 5.05511 124.829 6.87045C129.146 9.36649 132.347 12.8156 135.771 16.4463C138.748 20.077 141.13 23.8437 143.586 31.6042C148.648 31.1958 153.635 31.0143 158.771 32.058C170.234 35.0534 173.881 38.0033 179.315 42.9501C181.622 44.9923 183.334 47.4885 185.046 49.9391C188.693 55.6574 191.075 65.4602 189.512 72.7669C188.321 77.6683 186.833 81.2536 185.121 84.1128L166.065 74.1284C165.917 74.1284 162.12 79.5744 162.046 79.892L178.645 88.651L180.878 89.7857L180.282 90.4663C176.635 94.1424 172.467 97.3647 166.959 99.4977C160.185 103.083 152.518 102.901 145.075 102.765C117.311 102.765 89.5472 102.765 61.4855 102.765C56.3496 102.629 51.2881 102.947 45.8545 102.538C41.1651 102.085 36.1036 101.041 31.4886 99.0438C28.2879 97.6823 25.3851 96.1846 22.631 94.4147C23.3009 94.7323 24.1197 94.9139 24.9385 94.6871C26.7993 94.2332 27.9903 92.4633 27.4693 90.784C27.2459 90.0579 26.9481 89.8311 26.7249 89.3318C28.7345 86.3818 30.7443 83.5227 32.8284 80.5729C33.8706 79.1206 38.1876 72.7669 39.0064 71.8592C43.8447 72.4492 44.9613 67.5932 41.7605 65.914C39.8997 64.961 37.89 65.7325 36.9968 66.8217C35.8802 68.1832 36.178 69.8624 37.5922 71.1331C37.2944 71.7231 35.136 74.6276 34.6148 75.4899C31.7864 79.6652 28.1391 84.385 25.4595 88.5602C22.7054 87.7887 20.5468 89.1502 20.3236 91.5102L18.9838 91.7825L19.3558 92.1909C12.9545 87.4257 7.81865 81.2536 3.87362 73.5385C-1.41122 61.2395 -1.33681 48.9407 4.39464 36.188C7.66969 29.789 11.8381 24.5698 17.3462 20.0316C21.5889 16.7185 25.6828 13.9955 32.0097 11.6357C43.6214 7.36956 55.2332 6.68886 66.9937 9.45728C70.5666 11.091 71.0876 8.41342 73.1718 7.68733C75.9258 5.96278 78.0844 4.73733 82.1039 3.10357C86.421 1.42441 90.7382 0.65293 95.0553 0.108302ZM21.2912 93.5524L19.6536 92.4179L20.5468 92.9171C20.7702 93.0532 20.6212 92.9171 20.8446 93.144L21.2912 93.5524ZM55.2332 98.953C54.1166 98.953 53.67 99.1346 53.7444 98.0454C53.7444 97.3193 53.67 96.4116 53.7444 95.7308C54.1166 94.1424 57.094 92.1455 58.6571 90.8294C59.6247 89.9671 60.5179 89.4226 62.3043 89.4226H125.201C127.062 89.4226 129.072 91.1018 130.411 92.2363C132.272 93.734 133.984 94.3239 133.984 96.5477C134.059 98.7261 134.282 98.953 132.942 98.953H55.2332ZM63.4953 88.878C62.4533 88.878 61.6345 88.9688 61.0389 88.4241C60.5924 87.9249 60.5179 86.9719 61.0389 86.518C61.7089 85.9734 62.6021 86.1096 63.5697 86.1096H78.2333C93.4922 86.0642 108.826 86.2004 124.159 86.1096C125.424 86.1096 126.69 85.928 127.062 87.0172C127.434 88.2426 126.467 88.878 125.276 88.878H63.4953ZM45.7055 86.2458C45.4823 86.6996 44.5147 88.0611 44.1425 88.5602C43.8447 88.9234 43.6215 89.2864 43.3981 89.6495C42.9515 90.2395 42.7282 90.2395 42.9515 91.011C43.5469 92.9625 43.9935 95.0501 44.5891 97.0015C49.6505 97.8638 46.7477 103.128 43.6215 101.767L43.1003 102.13L42.2071 101.948L42.6537 101.222C41.0162 99.3615 42.1327 97.6369 43.6215 97.2285C43.2493 95.277 42.4305 92.7809 41.9094 90.8294C41.6861 90.1487 41.9839 89.8763 42.2816 89.4679C43.0259 88.4241 44.5147 86.4726 44.8867 85.7011C44.4401 84.9296 43.5469 83.7042 44.8867 82.4335C45.7055 81.5712 47.3431 81.1628 48.6085 82.025C50.9904 83.7042 49.1295 87.3803 45.7055 86.2458ZM129.369 62.6918C129.444 61.9657 132.496 57.972 132.942 56.8373C133.463 56.7919 136.441 58.4258 137.036 58.7435C137.706 59.1065 138.302 59.4695 138.972 59.7873C139.567 60.105 140.237 60.468 140.907 60.8311L156.464 69.0455C157.059 69.4085 157.878 69.7262 158.548 70.0892C160.26 71.0423 162.79 72.2222 164.279 73.1753L162.344 76.1253C161.972 76.7606 160.855 78.4851 160.408 78.939C159.813 78.8029 149.392 73.2207 148.722 72.8577C147.457 72.177 146.043 71.5415 144.852 70.8609C142.321 69.3632 138.004 67.2302 135.175 65.7779C134.58 65.4148 133.91 65.0518 133.314 64.734C132.644 64.371 131.975 64.0079 131.379 63.6903C130.635 63.3272 130.039 63.1002 129.369 62.6918ZM73.0228 64.2802C72.874 63.5995 73.3206 63.0094 73.6928 62.601C74.2138 62.0111 74.6604 62.5102 75.3303 62.6918C76.5957 63.0094 78.3821 62.5102 79.1265 61.9203C81.6573 60.0142 81.1361 56.7013 79.7963 55.839C78.2333 54.7951 78.8287 54.7951 79.8709 53.116C80.6895 51.6637 80.8385 50.9376 82.4015 51.7545C84.4113 52.8436 86.421 53.9328 88.5052 54.9767L101.457 61.9203C101.754 62.0565 101.903 62.1472 102.201 62.2834L111.208 67.094C112.473 67.684 113.068 67.8655 112.473 68.8639L111.208 70.8609C110.165 72.4492 109.868 71.1331 107.784 71.2693C104.881 71.4961 102.424 74.673 104.434 77.8045C105.03 78.8029 105.327 78.3945 105.625 78.8482C105.699 79.0298 105.476 81.5258 103.392 80.3459C101.68 79.3474 100.117 78.6667 98.7771 77.8952C96.3951 76.5791 93.6411 75.2176 91.1848 73.9015C90.2916 73.4023 89.0262 72.8123 88.133 72.313L73.0228 64.2802ZM117.981 59.0611C118.13 58.6073 123.713 49.8029 124.159 49.5307L132.421 53.8875C132.421 54.0236 126.839 63.0548 126.392 63.5087C126.02 63.4179 118.279 59.3335 117.981 59.0611ZM82.7737 51.4368C82.8481 50.983 82.6993 51.346 82.9971 50.9376L86.3466 45.7185C86.421 45.6731 86.4954 45.5823 86.5699 45.5369L86.6443 45.4008C87.3886 45.5823 89.6216 46.9439 90.4404 47.3069C92.6734 48.396 95.5019 49.9845 97.6605 51.1644L101.382 53.0252C103.615 54.2505 115.525 60.4226 115.971 60.7403L112.026 66.8217C111.431 66.8217 107.039 64.3256 106.295 63.9625C103.615 62.5102 99.9679 60.4226 97.2883 59.1519C96.0975 58.5619 94.9809 57.9266 93.641 57.2458L86.421 53.3428C85.3789 52.8436 83.6669 52.0267 82.7737 51.4368ZM86.7932 44.6293C86.8676 43.9938 90.5148 38.7294 91.2592 37.5949L94.6087 32.2396C95.1298 32.3304 96.2463 32.9657 96.6929 33.2381L115.376 43.0409C115.971 43.3132 116.641 43.7216 117.237 44.0392C118.353 44.6293 124.308 47.7153 124.606 48.033C124.457 48.4868 122.968 50.7106 122.67 51.1644C122.001 52.0721 121.256 53.252 120.661 54.2505L116.716 60.2866C116.12 60.2412 110.463 57.0643 109.123 56.4289L97.8839 50.5291C96.6185 49.8937 95.5019 49.2583 94.2366 48.5776L86.7932 44.6293ZM95.6508 31.7858C95.6508 31.2412 97.4373 28.7451 97.8839 28.0644C98.4793 27.1568 99.4469 25.296 100.191 24.5245C100.563 24.5698 106.742 27.8829 107.56 28.2913C108.9 29.0174 109.868 29.6074 111.208 30.2428L116.716 33.1473C117.311 33.4649 117.907 33.7373 118.502 34.1004L129.221 39.7279C129.295 39.7733 129.369 39.8187 129.369 39.8187C129.444 39.7733 129.444 39.8187 129.518 39.8641L124.755 47.1707C124.159 46.9892 121.777 45.5823 121.107 45.2647C119.098 44.357 117.534 43.3586 115.599 42.3601L101.01 34.6903C100.415 34.3272 99.8191 34.055 99.2237 33.7373C98.2561 33.1927 96.3951 32.3304 95.6508 31.7858ZM107.411 10.9095C108.156 10.5464 111.729 12.7702 112.994 13.3602C115.822 14.7671 119.916 17.127 122.819 18.5793C125.424 19.85 128.03 21.3931 130.486 22.6184C133.091 23.8891 135.547 25.296 138.078 26.6121C139.79 27.4744 138.897 28.1551 138.153 29.2898C137.929 29.6982 137.632 30.2881 137.26 30.6513C136.441 31.4681 135.771 30.8327 135.622 30.7873C134.059 30.1974 131.602 31.2866 130.635 32.7389C129.593 34.3272 129.965 36.6872 131.156 37.6857C131.677 38.1395 132.272 38.0941 131.9 38.9564C131.007 40.9078 130.114 39.9548 129.221 39.4102L100.266 24.2068C99.7447 23.9345 99.0747 23.7075 99.3725 22.9814C100.34 20.8485 101.159 22.21 102.424 22.21C106.072 22.1646 108.23 19.1693 106.816 16.1739C106.22 14.9032 104.509 14.9486 105.476 13.5871C105.848 12.9972 106.89 11.1364 107.411 10.9095ZM46.3755 14.2679C44.2913 12.0441 46.8221 9.68413 49.0551 10.6826C51.2881 11.7265 50.5438 15.1302 47.1943 14.6309C47.0453 15.0848 43.3981 20.1676 42.8771 20.9392C42.4305 21.4837 42.4305 21.3931 42.6537 22.1646L44.4401 28.972C44.6635 29.8797 45.1845 30.9235 44.7379 31.6042C41.5373 36.3242 37.741 41.3616 34.6148 46.0816C34.3916 46.3992 34.0938 46.8077 33.8706 47.1253C33.275 47.9422 33.5728 47.3977 33.7216 48.2146C33.7961 49.1676 32.6796 49.8937 31.7119 49.3037C30.8187 48.7592 30.9676 47.5337 32.0097 47.2615C32.9029 46.9892 32.5307 47.3523 33.0518 46.5354L42.4305 33.1019C44.2913 30.5605 43.9935 31.5589 43.1748 28.2913C42.7282 26.4759 42.2816 24.6606 41.835 22.8453C41.4628 21.3477 41.2395 21.5291 42.0583 20.3492L46.3755 14.2679ZM23.2264 30.7873C24.2685 30.5605 23.9708 30.7419 24.1941 30.4243C24.4919 30.0612 24.4174 29.8797 24.9385 29.6982C26.3527 29.1082 25.1617 30.6513 27.0971 27.9736C30.9676 22.6184 34.6894 17.0816 38.4854 11.6811C39.9741 9.63874 39.602 9.41188 41.4628 9.04884C40.8673 10.365 38.932 12.7248 38.0388 14.1317C36.8478 15.7655 35.7314 17.354 34.5404 19.0331C33.6472 20.3946 26.7993 29.6982 26.7249 30.3789C26.6505 31.1505 26.7249 31.5135 26.0549 31.7858C25.0873 32.1488 24.7896 31.6042 24.343 31.5135C23.9708 31.4681 19.207 32.5119 18.9092 32.6027C18.4626 32.7843 18.2394 33.3742 17.9416 33.7373L13.6245 39.9094C11.0193 43.9032 11.5403 41.5432 12.2102 45.4915L12.5079 45.1739C12.5823 45.1285 12.6568 45.0377 12.7313 44.9469L15.262 41.271C16.0808 40.0909 16.0808 40.3633 17.7184 40.0001L23.9708 38.7294C27.6181 37.9125 26.8737 38.5479 28.5857 36.0518C28.8089 35.6887 29.7767 34.2818 30.0743 34.055C29.7021 33.2835 28.3623 32.1942 29.7767 30.6513C30.4465 29.8797 31.8608 29.2444 33.3495 29.9704C36.0292 31.3774 34.5404 35.2803 30.9676 34.418C30.3721 34.9626 29.7767 36.0972 29.1811 36.9141C28.1391 38.321 28.2879 38.7294 26.8737 39.0472L17.644 40.9532C16.6762 41.1348 16.6018 40.9986 16.1552 41.6794C15.7086 42.4055 12.7313 46.3084 12.6568 46.7623C12.5823 47.0799 13.2523 49.5761 13.4011 50.0753C13.6989 51.1644 13.9966 52.2991 14.2944 53.4336C14.5921 54.7951 14.4432 54.0236 15.1876 54.7043C15.6342 55.0674 15.7086 55.7482 15.3364 56.202C14.741 56.9281 14.2944 56.3381 13.8478 56.9735C13.4756 57.4273 13.2523 57.7904 12.9545 58.2442C10.5727 61.5573 8.33967 64.961 5.88327 68.3193C5.36226 69.0909 4.54346 69.9986 4.17126 70.8609C4.84124 70.7701 6.40429 70.4523 7.07427 70.2708C7.81866 70.0892 7.2975 69.9078 7.89306 69.4539C8.33967 69.0909 8.5629 69.3178 8.93509 68.9093C9.15846 68.6825 9.3817 68.2286 9.60507 67.9109C9.82831 67.6386 9.97713 67.3662 10.2749 67.0032L14.2199 61.3303C14.5177 60.8765 14.5921 60.8311 15.262 60.7403C15.7086 60.6496 16.1552 60.5134 16.6018 60.4226C18.016 60.1504 18.5372 60.2866 19.0582 59.5603C19.4304 58.9703 23.8964 52.2991 24.4919 52.1175C25.7573 51.7091 28.5113 51.3006 29.9999 50.983C30.8931 50.756 34.9126 50.166 35.3592 49.7121C36.0292 48.986 37.2944 46.8985 37.9644 45.9454C42.0583 40.3633 45.8545 34.5542 49.8739 28.972C50.6182 27.9736 50.7671 28.1097 50.4693 26.7482C49.9483 25.1144 49.5761 23.4353 49.1295 21.7561C48.8318 20.5761 50.6926 18.9423 51.2137 17.8532C50.0227 16.5825 49.4273 14.994 50.6926 13.451C51.5858 12.4072 53.4468 11.6357 55.382 12.5433C58.5826 14.0409 57.615 19.1693 52.628 18.4885C51.3626 20.6215 50.3949 20.5761 50.916 22.3914C51.3626 24.0253 51.7347 25.6137 52.1069 27.2474C52.479 28.3821 52.0324 28.5181 51.437 29.3352C49.5017 32.1942 38.1132 48.033 37.4434 49.3945C39.5275 49.1222 41.7605 48.4868 43.9191 48.0784C45.4823 47.7607 46.2265 47.8515 46.7477 47.0799C47.2687 46.3084 47.7153 45.6277 48.2363 44.9015C49.2784 43.4493 50.3205 41.997 51.2881 40.5447C52.0324 39.5463 53.9678 37.0502 54.34 36.0972C52.9256 35.2349 53.149 32.875 54.1166 31.8312C55.0842 30.7873 57.094 30.0612 58.8804 31.1505C60.9645 32.4212 61.2623 35.6887 58.4338 36.778C57.3916 37.1864 56.7218 37.0956 55.6052 36.9595C55.382 37.4133 47.4175 48.6684 47.3431 48.7138C46.5243 49.213 38.5598 50.4837 36.5502 51.0282C36.0292 51.1644 35.4336 51.8452 35.4336 52.3898C35.3592 52.9344 36.2524 55.5212 36.4012 56.3381C36.9968 56.2474 45.1845 54.6589 45.5567 54.3867C45.9289 54.1143 52.7024 44.3116 53.5956 42.9501C54.4144 41.8155 54.1166 41.6794 55.6798 41.407C60.5179 40.4087 59.5503 41.271 61.6345 38.2756L65.9516 32.0128C66.3982 31.332 67.0681 30.6059 67.3659 29.9704C65.5049 27.3836 68.6312 25.5229 70.4922 26.7482C72.5762 28.1097 71.3854 31.1958 68.1846 30.4697C67.8869 31.1958 64.0907 36.4149 63.6441 37.0956C62.8253 38.1849 62.0811 39.2286 61.3367 40.3179C60.6668 41.2256 60.9645 41.2256 59.6247 41.4978C58.806 41.634 55.4564 42.1332 55.0098 42.6325C54.34 43.404 50.0972 49.6215 49.3528 50.756C48.6829 51.7545 47.4919 53.0252 47.0453 54.1143C48.0875 53.9782 49.2784 53.6606 50.3205 53.4336C51.8092 53.1614 51.7347 52.9798 52.479 51.8906C53.149 50.8922 55.0098 48.4868 55.4564 47.6245C55.0842 47.2161 54.7866 47.0346 54.712 46.3084C54.4144 44.6747 56.3496 43.2224 58.136 44.13C60.5179 45.31 59.2526 48.623 56.424 48.0784C56.1264 48.3054 53.2978 52.3898 52.8512 53.0252C51.958 54.3867 51.5858 54.1143 49.8739 54.4775C45.4823 55.3397 46.5243 54.7043 44.4401 57.6996C43.4725 59.1519 43.3237 58.6981 43.7703 60.5588C44.2169 62.1926 44.9613 65.8686 45.5567 67.1848C46.1521 66.3225 46.6731 65.551 47.2687 64.734C48.3107 63.2364 48.8318 62.964 48.6085 62.1018C48.4596 61.4665 48.8317 60.9219 49.3528 60.7857C50.3205 60.5134 50.5438 61.1034 51.0648 61.1488C51.7347 61.1488 57.3916 59.8327 58.4338 59.6057C60.5924 59.1519 60.0713 59.5603 61.1879 58.0174C61.7833 57.1551 62.3043 56.3381 62.8999 55.4758C63.4953 54.7043 64.1651 53.7967 64.6863 53.0252L64.3885 52.6167C63.7931 51.7091 63.8675 50.4383 64.6117 49.6669C65.3561 48.8499 66.8448 48.4414 68.1846 49.1676C70.1944 50.3022 70.0456 54.2505 65.4305 53.479C65.2817 53.9328 64.6863 54.7043 64.3885 55.1128C64.0163 55.7028 63.7185 56.1112 63.2719 56.6559C62.8999 57.2005 62.6021 57.6996 62.2299 58.2442C61.9321 58.6981 61.4111 59.4241 61.1134 59.7873C60.7413 60.2412 59.6992 60.2866 59.0292 60.4226L52.1814 61.8295C50.5438 62.1926 51.3626 62.4649 50.5438 62.8734C49.4273 63.4179 50.0972 62.4195 48.9807 64.0079C48.5341 64.5525 45.8545 68.2286 45.8545 68.6825C45.9289 69.4539 47.3431 74.6276 47.4919 74.7638C47.8641 75.0814 48.7573 75.2176 48.4595 76.2614C48.0875 77.2598 47.2687 76.7606 46.7477 77.3506C46.0777 78.1221 40.9418 85.6557 40.3463 86.5634C39.602 87.6073 38.8576 88.651 38.1132 89.6949C36.6246 91.8279 36.5502 91.4648 36.9224 93.0532C37.5922 95.6854 38.5598 98.8169 39.0809 101.313C37.5922 101.177 37.89 100.859 37.5922 99.6337L35.8058 92.6447C35.508 91.4648 35.657 91.4648 36.3268 90.6025L39.9741 85.3381C41.6861 83.0235 43.3237 80.6181 44.9613 78.2583C45.2589 77.8045 46.0777 76.8968 46.0033 76.4429C45.7055 74.6276 46.6731 75.7621 46.2265 74.1738C45.7799 72.6761 45.4823 71.0877 45.0357 69.59L33.5728 85.928C33.2006 86.4726 33.3495 86.3818 33.424 87.0172C33.4984 87.7433 33.1262 87.6979 32.9773 88.0611C32.9029 88.4695 35.2104 97.1831 35.508 98.2722C35.9546 99.7245 35.4336 99.2707 34.987 100.269L34.0938 99.9515C34.3916 99.1799 34.7638 99.3615 34.5404 98.4084L32.4563 90.2395C31.9352 88.0157 32.233 88.5149 31.4142 88.0611C31.1909 87.9249 31.042 87.8341 30.9676 87.5165C30.6699 86.8811 31.042 86.3365 31.5631 86.1096C32.6052 85.6103 32.0841 86.4272 32.8284 85.2927L43.3237 70.3616C44.1425 69.1816 44.8123 68.6825 44.5891 67.6386C43.9935 65.4602 43.3981 63.2364 42.8771 61.058C42.5049 59.5603 42.0583 59.3789 43.0259 58.0174C43.3981 57.5181 44.5147 56.0204 44.7379 55.5666L36.699 57.2458C36.8478 58.8343 37.6666 61.1941 38.0388 62.8734C38.4854 64.5071 38.5598 64.1441 37.6666 65.4148L31.7864 73.8107C31.042 74.8546 31.1165 75.036 29.7022 75.3083C25.6083 76.1253 21.44 77.033 17.3462 77.8952C15.7086 78.2129 15.8575 78.0313 14.9643 79.2568C14.1455 80.5275 14.2944 80.2551 14.6665 81.8436C15.1876 83.7042 15.5598 85.4741 16.0808 87.3349C17.7928 87.5619 17.7928 89.1502 16.5274 89.6041C16.1552 89.5133 15.1132 88.4695 14.8898 88.2426C15.0387 87.5165 15.262 88.0157 14.9643 86.9718L13.9966 83.1597C13.1779 79.9828 12.8057 80.7997 14.2944 78.5305L7.66969 79.892C6.10664 76.7606 5.66004 78.7575 8.1907 75.036C11.2425 70.5885 15.0387 65.551 17.8672 61.1034C17.3462 61.2395 15.4853 61.5119 15.1132 61.7841C15.0387 61.8749 9.75389 69.3178 9.75389 69.5447C9.8283 69.8624 10.2749 70.0438 9.90272 70.7701C9.82831 71.0877 9.3817 71.4054 8.93509 71.4507C7.52087 71.6323 8.9351 70.7701 6.25547 71.36C5.28785 71.5869 4.32022 71.7685 3.42701 71.95C2.60821 71.0877 3.20364 70.4977 3.79921 69.6808C6.85089 65.4602 9.67949 61.1034 12.7313 56.8373C13.2523 56.1112 13.1779 56.4743 13.029 55.7028C12.9545 55.4758 12.9545 55.249 13.1034 55.022L13.4756 54.4775L11.8381 47.9422L6.99986 54.8405C6.70207 55.2036 6.10665 55.7936 6.25547 56.202C6.77648 57.8812 4.76683 58.4258 4.02244 57.2912L0.151818 58.0628V57.1551C0.896206 57.0189 1.78942 56.8373 2.53381 56.7013C4.54346 56.2474 3.42702 56.3835 4.39464 55.7482C4.84124 55.4758 5.06447 55.7028 5.43667 55.3398C6.10664 54.6589 6.55325 53.7059 7.07427 52.9798C7.59528 52.2991 11.3915 46.9438 11.4659 46.6261C11.5403 45.7638 10.2749 43.1316 10.6471 42.4509L11.8381 40.8171C12.6568 39.5917 16.8996 33.7827 17.2718 32.9657L4.91565 35.5073C5.13902 34.9172 5.21343 34.5542 5.88327 34.3726L17.4206 32.0128C18.2394 31.8312 18.2394 31.695 18.6116 31.1505C19.5048 29.8343 23.3753 24.0253 24.1197 23.2991C23.8219 22.8453 23.3753 22.4822 23.3753 21.6653C23.3009 21.0299 23.5242 20.44 23.8964 19.9862C26.0549 17.6716 30.0743 19.9862 28.5113 22.6638C27.8413 23.7529 26.7249 24.0707 24.9385 23.7983C24.4174 24.3884 19.9514 30.7419 19.5792 31.5589L23.2264 30.7873Z" fill="#0C2D60"/>
</svg>
